<?xml version="1.0" encoding="UTF-8" standalone="no"?>
<svg
   width="245.99799"
   height="286.97397"
   viewBox="0 0 245.99799 286.97397"
   fill="none"
   version="1.1"
   id="svg27"
   sodipodi:docname="LION_White.svg"
   inkscape:version="1.2.2 (b0a8486541, 2022-12-01)"
   xmlns:inkscape="http://www.inkscape.org/namespaces/inkscape"
   xmlns:sodipodi="http://sodipodi.sourceforge.net/DTD/sodipodi-0.dtd"
   xmlns="http://www.w3.org/2000/svg"
   xmlns:svg="http://www.w3.org/2000/svg">
  <sodipodi:namedview
     id="namedview29"
     pagecolor="#505050"
     bordercolor="#ffffff"
     borderopacity="1"
     inkscape:showpageshadow="0"
     inkscape:pageopacity="0"
     inkscape:pagecheckerboard="1"
     inkscape:deskcolor="#505050"
     showgrid="false"
     inkscape:zoom="2.8066667"
     inkscape:cx="123.27791"
     inkscape:cy="143.40855"
     inkscape:window-width="1920"
     inkscape:window-height="1009"
     inkscape:window-x="0"
     inkscape:window-y="32"
     inkscape:window-maximized="1"
     inkscape:current-layer="svg27" />
  <g
     clip-path="url(#clip0_305_245)"
     id="g20"
     transform="translate(-27.000019,-7.0260399)">
    <path
       d="m 265.936,138.495 c 0.048,-0.036 0.132,-0.071 0.204,-0.108 -1.844,8.941 -4.477,18.05 -9.756,25.638 -5.026,-10.7 -1.364,-18.624 9.552,-25.53 z m -50.905,52.102 c -4.369,-9.742 -11.885,-16.601 -21.269,-21.377 -12.364,-6.308 -20.743,5.625 -43.76,-0.563 C 110.12,157.083 108.48,118.076 118.044,91.408 99.779,80.9707 93.483,57.5947 101.574,38.636 c 1.712,-4.5373 4.465,-9.336 8.116,-12.952 5.433,-5.3493 13.728,-6.176 20.24,-2.1773 17.678,10.844 22.669,37.26 54.376,28.6773 -11.922,0.9227 -23.675,-6.6306 -30.115,-16.2893 22.371,-2.5853 44.613,13.7533 59.009,28.4386 -0.024,-0.06 -8.786,-17.7626 -16.446,-24.4293 13.441,7.1214 36.949,27.2067 36.949,27.2067 -18.828,15.0693 25.028,47.1103 33.155,60.4203 -2.083,6.081 -26.739,8.104 -34.639,-5.96 -5.087,10.449 5.889,17.462 14.615,19.713 9.97,2.465 2.166,16.601 -5.602,21.161 -17.942,10.378 -41.773,7.924 -53.874,-10.042 4.884,16.877 25.076,28.128 41.665,20.862 5.985,-2.681 11.897,-5.541 18.277,-7.229 1.867,1.041 3.771,1.832 5.758,2.585 3.997,28.044 -23.867,25.795 -38.027,21.976 z m 1.616,-167.689 c -5.625,3.4587 -9.049,7.876 -11.192,14.076 -1.148,-0.5626 -2.321,-1.1253 -3.411,-1.82 2.047,-4.9066 5.255,-10.64 14.603,-12.256 z m -18.516,0.0827 c 5.325,-2.788 19.437,-16.64801 21.137,-4.476 -9.252,0.024 -17.176,6.5707 -20.54,15.0093 -3.829,-1.7226 -7.886,-2.872 -11.813,-4.368 3.867,-1.904 7.529,-3.9506 11.216,-6.1653 z m 35.464,59.7626 c -0.515,0 -0.921,-0.4186 -0.921,-0.9213 0,-0.5267 0.406,-0.9213 0.921,-0.9213 0.503,0 0.921,0.3946 0.921,0.9213 0,0.5027 -0.418,0.9213 -0.921,0.9213 z m 3.172,0.8267 c 0.288,1.76 -2.131,5.0387 -2.872,1.9387 1.508,-0.7653 2.107,-1.1494 2.872,-1.9387 z m 1.52,-6.188 c -3.172,-3.7586 -6.703,3.016 -6.703,3.016 -1.7,-6.152 4.932,-9.8626 6.703,-3.016 z m 34.711,49.624 c -10.628,-12.747 -22.011,-24.968 -33.586,-36.8773 1.102,-3.172 1.114,-5.5174 0.18,-8.7374 C 248.33,66.5 228.532,54.064 218.442,45.7094 231.094,22.848 227.132,-9.18264 198.37,16.576 182.259,31.0347 160.798,22.4054 141.935,26.9894 133.126,13.9787 94.4043,-2.75465 90.323,65.9133 55.0257,78.1813 -22.057,180.448 71.9857,270.887 67.2697,256.763 62.555,243.956 60.0163,229.175 82.3283,254.417 114.094,269.032 146.016,277.997 96.379,250.635 46.767,226.828 41.8003,163.403 40.9857,192.5 49.3763,221.012 59.323,248.073 23.7617,193.889 27.4363,125.808 78.2457,82.6107 c -0.0827,-0.084 0.048,-0.228 0.156,-0.156 0.12,0.084 -0.036,0.276 -0.156,0.156 C 17.9683,168.933 131.402,269.929 210.998,289.943 136.034,253.184 27.1737,160.04 96.535,72.2213 72.4177,121.749 82.711,176.449 122.915,214.093 c 24.227,24.406 48.536,50.702 80.111,65.496 -24.083,-13.118 -37.188,-37.966 -48.667,-61.809 -15.021,-32.58 -47.997,-43.377 -50.619,-83.653 0,0 10.796,28.941 36.028,54.686 9.575,9.756 17.2,21.27 22.814,33.743 1.472,3.267 2.932,6.535 4.464,9.719 13.765,31.789 45.16,49.265 75.885,61.725 -24.764,-22.969 -54.029,-45.961 -62,-80.481 -3.687,-13.454 -3.364,-30.558 8.007,-40.336 10.042,4.356 19.02,12.256 22.346,22.705 19.379,5.171 52.103,1.699 46.502,-26.285 11.034,-12.46 14.709,-26.224 15.212,-42.587 z"
       fill="#ffffff"
       id="path2" />
    <path
       d="m 117.594,54.3204 c 9.816,-5.5933 22.431,-2.584 30.203,5.1547 -5.796,-0.4267 -14.725,-0.044 -20.095,10.3347 5.752,-4.4267 14.142,-5.46 20.207,-1.0454 -11.019,1.0334 -19.521,10.6253 -17.847,21.812 -8.2,-4.6947 -16.286,-9.636 -21.15,-18.072 -8.211,-15.3653 -5.01,-39.5133 12.12,-47.2746 13.758,7.2106 24.665,20.464 30.336,34.808 -7.468,-10.48 -23.732,-15.512 -33.774,-5.7174 z"
       fill="#ffffff"
       id="path4" />
    <path
       d="m 184.805,86.32 c 1.46,-0.7533 2.897,-1.5507 4.38,-2.2467 -0.359,6.74 7.403,9.4014 10.749,3.348 0.731,8.76 -14.556,6.3907 -15.129,-1.1013 z m 11.524,-2.212 c 0.708,0 1.28,0.584 1.28,1.2907 0,0.708 -0.572,1.292 -1.28,1.292 -0.067,0 -0.135,0 -0.203,-0.0227 -0.617,-0.0893 -1.089,-0.6293 -1.089,-1.2693 0,-0.7067 0.573,-1.2907 1.292,-1.2907 z m 13.837,3.5147 c -3.133,-8.076 0.574,-16.9934 -9.737,-21.116 -14.692,-5.6374 -25.732,8.4573 -37.695,14.22 17.871,-3.448 39.492,-21.8454 45.635,7.2333 -10.76,-24.0133 -29.429,-1.5067 -47.219,-3.3133 0.08,0.0453 13.636,4.9533 20.039,3.2453 4.088,11.648 15.051,7.1893 23.901,8.616 4.256,1.3693 10.187,5.571 13.5,8.648 -2.313,-6.0773 -5.852,-11.6027 -8.424,-17.5333 z"
       fill="#ffffff"
       id="path6" />
    <path
       d="m 199.989,99.6296 c -7.864,6.5174 -23.519,0.1507 -23.958,-10.0413 4.928,8.5026 16.683,12.7107 25.676,8.42 -0.552,0.5813 -1.082,1.132 -1.718,1.6213 z"
       fill="#ffffff"
       id="path8" />
    <path
       d="m 232.283,153.617 c -14.545,5.687 -26.603,1.304 -37.334,-6.685 -7.647,-5.695 -15.845,-10.596 -24.391,-14.824 -15.094,-7.468 -21.145,-14.528 -19.35,-40.343 2.332,23.661 9.093,31.323 26.078,39.899 5.552,2.802 10.785,6.192 15.616,10.11 11.971,9.707 24.385,14.547 41.261,10.97 -0.617,0.341 -1.224,0.614 -1.88,0.873 z"
       fill="#ffffff"
       id="path10" />
    <path
       d="m 130.01,129.371 c 0,-11.597 4.268,-22.935 9.843,-32.9345 -6.774,19.8065 -6.223,43.6665 10.57,58.3705 -4.008,-6.889 -5.217,-14.443 -3.564,-22.275 2.744,16.255 16.97,27.482 32.64,30.278 -39.846,11.158 -67.198,-19.35 -54.246,-58.08 -1.512,10.913 0.446,22.529 5.789,32.149 -0.149,0.108 0.073,0.308 0.165,0.148 0.058,-0.1 -0.072,-0.216 -0.165,-0.148 -0.42,-2.508 -0.997,-4.945 -1.032,-7.508 z"
       fill="#ffffff"
       id="path12" />
    <path
       d="m 200.335,142.18 c -1.858,-1.443 -7.362,-6.636 -7.501,-9.008 11.131,11.503 24.78,14.324 40.135,14.107 l -0.09,0.122 0.072,-0.153 0.195,0.073 c -11.316,1.536 -23.16,2.224 -32.811,-5.141 z"
       fill="#ffffff"
       id="path14" />
    <path
       d="M 49.7,135.043 C 36.0787,202.452 101.195,260.636 180.736,286.101 179.335,285.653 57.5533,234.273 49.7,135.043 Z"
       fill="#ffffff"
       id="path16" />
    <path
       d="m 235.853,158.222 c -17.129,9.521 -42.429,4.444 -50.649,-14.477 12.753,14.645 32.308,20.261 50.829,14.362 -0.06,0.039 -0.118,0.079 -0.18,0.115 z"
       fill="#ffffff"
       id="path18" />
  </g>
  <defs
     id="defs25">
    <clipPath
       id="clip0_305_245">
      <rect
         width="300"
         height="300"
         fill="#ffffff"
         id="rect22"
         x="0"
         y="0" />
    </clipPath>
  </defs>
</svg>
