<?xml version="1.0" encoding="UTF-8" standalone="no"?>
<svg
   width="746.34033"
   height="286.97412"
   viewBox="0 0 746.34033 286.97412"
   fill="none"
   version="1.1"
   id="svg51"
   sodipodi:docname="LOGO_Grey.svg"
   inkscape:version="1.2.2 (b0a8486541, 2022-12-01)"
   xmlns:inkscape="http://www.inkscape.org/namespaces/inkscape"
   xmlns:sodipodi="http://sodipodi.sourceforge.net/DTD/sodipodi-0.dtd"
   xmlns="http://www.w3.org/2000/svg"
   xmlns:svg="http://www.w3.org/2000/svg">
  <defs
     id="defs55" />
  <sodipodi:namedview
     id="namedview53"
     pagecolor="#505050"
     bordercolor="#ffffff"
     borderopacity="1"
     inkscape:showpageshadow="0"
     inkscape:pageopacity="0"
     inkscape:pagecheckerboard="1"
     inkscape:deskcolor="#505050"
     showgrid="false"
     inkscape:zoom="1.0604534"
     inkscape:cx="363.99525"
     inkscape:cy="140.97743"
     inkscape:window-width="1920"
     inkscape:window-height="1009"
     inkscape:window-x="0"
     inkscape:window-y="32"
     inkscape:window-maximized="1"
     inkscape:current-layer="svg51" />
  <mask
     id="mask0_305_321"
     maskUnits="userSpaceOnUse"
     x="0"
     y="0"
     width="1123"
     height="794">
    <path
       d="M 0,6.61818e-6 H 1122.52 V 793.701 H 0 Z"
       fill="#ffffff"
       id="path2" />
  </mask>
  <g
     mask="url(#mask0_305_321)"
     id="g49"
     transform="translate(-198.17466,-256.95388)">
    <path
       d="m 437.111,388.423 c 0.048,-0.036 0.132,-0.071 0.204,-0.108 -1.844,8.941 -4.477,18.05 -9.756,25.638 -5.027,-10.7 -1.364,-18.624 9.552,-25.53 z m -50.905,52.102 c -4.37,-9.742 -11.886,-16.601 -21.27,-21.377 -12.364,-6.308 -20.742,5.625 -43.76,-0.563 -39.881,-11.574 -41.521,-50.581 -31.957,-77.249 -18.265,-10.437 -24.561,-33.813 -16.471,-52.772 1.712,-4.537 4.466,-9.336 8.116,-12.952 5.434,-5.349 13.728,-6.176 20.24,-2.177 17.679,10.844 22.67,37.26 54.376,28.677 -11.921,0.923 -23.674,-6.631 -30.114,-16.289 22.37,-2.586 44.613,13.753 59.009,28.438 -0.024,-0.06 -8.787,-17.762 -16.447,-24.429 13.442,7.121 36.95,27.207 36.95,27.207 -18.828,15.069 25.028,47.11 33.154,60.42 -2.082,6.081 -26.738,8.104 -34.638,-5.96 -5.087,10.449 5.889,17.462 14.614,19.713 9.971,2.465 2.167,16.601 -5.601,21.161 -17.943,10.378 -41.773,7.924 -53.875,-10.042 4.884,16.877 25.076,28.128 41.666,20.862 5.985,-2.681 11.897,-5.541 18.277,-7.229 1.867,1.041 3.771,1.832 5.757,2.585 3.998,28.044 -23.866,25.795 -38.026,21.976 z m 1.616,-167.689 c -5.626,3.459 -9.05,7.876 -11.192,14.076 -1.148,-0.563 -2.322,-1.125 -3.411,-1.82 2.047,-4.907 5.255,-10.64 14.603,-12.256 z m -18.516,0.083 c 5.325,-2.788 19.437,-16.648 21.137,-4.476 -9.252,0.024 -17.176,6.57 -20.54,15.009 -3.829,-1.723 -7.887,-2.872 -11.813,-4.368 3.866,-1.904 7.529,-3.951 11.216,-6.165 z m 35.464,59.762 c -0.515,0 -0.922,-0.418 -0.922,-0.921 0,-0.527 0.407,-0.921 0.922,-0.921 0.502,0 0.921,0.394 0.921,0.921 0,0.503 -0.419,0.921 -0.921,0.921 z m 3.172,0.827 c 0.288,1.76 -2.131,5.039 -2.872,1.939 1.508,-0.766 2.106,-1.15 2.872,-1.939 z m 1.52,-6.188 c -3.172,-3.759 -6.703,3.016 -6.703,3.016 -1.7,-6.152 4.932,-9.863 6.703,-3.016 z m 34.71,49.624 c -10.628,-12.747 -22.01,-24.968 -33.585,-36.877 1.101,-3.172 1.113,-5.518 0.18,-8.738 8.737,-14.901 -11.06,-27.337 -21.151,-35.692 12.652,-22.861 8.691,-54.892 -20.072,-29.133 -16.11,14.459 -37.572,5.829 -56.434,10.413 -8.81,-13.01 -47.531,-29.744 -51.612,38.924 -35.298,12.268 -112.38,114.535 -18.338,204.974 -4.716,-14.124 -9.43,-26.931 -11.969,-41.712 22.312,25.242 54.077,39.857 86,48.822 -49.637,-27.362 -99.249,-51.169 -104.216,-114.594 -0.815,29.097 7.576,57.609 17.523,84.67 -35.562,-54.184 -31.887,-122.265 18.922,-165.462 -0.082,-0.084 0.048,-0.228 0.156,-0.156 0.12,0.084 -0.036,0.276 -0.156,0.156 -60.277,86.322 53.156,187.318 132.752,207.332 C 307.208,503.112 198.348,409.968 267.71,322.149 c -24.118,49.528 -13.824,104.228 26.38,141.872 24.226,24.406 48.536,50.702 80.11,65.496 -24.082,-13.118 -37.188,-37.966 -48.666,-61.809 -15.022,-32.58 -47.998,-43.377 -50.619,-83.653 0,0 10.796,28.941 36.028,54.686 9.575,9.756 17.2,21.27 22.813,33.743 1.472,3.267 2.932,6.535 4.464,9.719 13.766,31.789 45.16,49.265 75.886,61.725 -24.764,-22.969 -54.03,-45.961 -62,-80.481 -3.687,-13.454 -3.364,-30.558 8.006,-40.336 10.043,4.356 19.02,12.256 22.347,22.705 19.379,5.171 52.103,1.699 46.501,-26.285 11.035,-12.46 14.71,-26.224 15.212,-42.587 z"
       fill="#2d2d2f"
       id="path5" />
    <path
       d="m 288.77,304.248 c 9.816,-5.593 22.431,-2.584 30.203,5.155 -5.796,-0.427 -14.726,-0.044 -20.095,10.335 5.752,-4.427 14.141,-5.46 20.207,-1.046 -11.019,1.034 -19.522,10.626 -17.847,21.812 -8.2,-4.694 -16.287,-9.636 -21.151,-18.072 -8.21,-15.365 -5.009,-39.513 12.12,-47.274 13.759,7.21 24.666,20.464 30.336,34.808 -7.468,-10.48 -23.732,-15.512 -33.773,-5.718 z"
       fill="#2d2d2f"
       id="path7" />
    <path
       d="m 355.981,336.248 c 1.46,-0.753 2.897,-1.551 4.38,-2.247 -0.359,6.74 7.403,9.402 10.749,3.348 0.731,8.76 -14.556,6.391 -15.129,-1.101 z m 11.524,-2.212 c 0.708,0 1.28,0.584 1.28,1.291 0,0.708 -0.572,1.292 -1.28,1.292 -0.067,0 -0.135,0 -0.203,-0.023 -0.617,-0.089 -1.089,-0.629 -1.089,-1.269 0,-0.707 0.573,-1.291 1.292,-1.291 z m 13.837,3.515 c -3.133,-8.076 0.574,-16.994 -9.737,-21.116 -14.692,-5.638 -25.732,8.457 -37.695,14.22 17.871,-3.448 39.492,-21.846 45.635,7.233 -10.76,-24.013 -29.429,-1.507 -47.219,-3.313 0.08,0.045 13.636,4.953 20.039,3.245 4.088,11.648 15.051,7.189 23.901,8.616 4.256,1.369 10.187,5.571 13.5,8.648 -2.313,-6.077 -5.852,-11.603 -8.424,-17.533 z"
       fill="#2d2d2f"
       id="path9" />
    <path
       d="m 371.164,349.558 c -7.864,6.517 -23.518,0.15 -23.957,-10.042 4.928,8.503 16.683,12.711 25.676,8.42 -0.552,0.582 -1.083,1.132 -1.719,1.622 z"
       fill="#2d2d2f"
       id="path11" />
    <path
       d="m 403.459,403.545 c -14.545,5.687 -26.604,1.304 -37.334,-6.685 -7.647,-5.695 -15.846,-10.596 -24.391,-14.824 -15.095,-7.468 -21.145,-14.528 -19.351,-40.343 2.332,23.661 9.094,31.323 26.079,39.899 5.552,2.802 10.785,6.192 15.616,10.11 11.971,9.707 24.385,14.547 41.261,10.97 -0.617,0.341 -1.224,0.614 -1.88,0.873 z"
       fill="#2d2d2f"
       id="path13" />
    <path
       d="m 301.186,379.299 c 0,-11.597 4.268,-22.934 9.843,-32.934 -6.774,19.806 -6.223,43.666 10.57,58.37 -4.008,-6.889 -5.217,-14.442 -3.564,-22.274 2.744,16.254 16.97,27.481 32.64,30.277 -39.846,11.159 -67.198,-19.349 -54.246,-58.08 -1.512,10.913 0.446,22.529 5.789,32.149 -0.149,0.108 0.073,0.308 0.165,0.148 0.058,-0.1 -0.072,-0.216 -0.165,-0.148 -0.42,-2.508 -0.997,-4.945 -1.032,-7.508 z"
       fill="#2d2d2f"
       id="path15" />
    <path
       d="m 371.51,392.108 c -1.859,-1.443 -7.363,-6.636 -7.501,-9.008 11.13,11.503 24.78,14.324 40.134,14.107 l -0.089,0.122 0.072,-0.153 0.195,0.073 c -11.316,1.536 -23.16,2.224 -32.811,-5.141 z"
       fill="#2d2d2f"
       id="path17" />
    <path
       d="M 220.875,384.971 C 207.253,452.38 272.369,510.564 351.911,536.03 350.509,535.582 228.728,484.202 220.875,384.971 Z"
       fill="#2d2d2f"
       id="path19" />
    <path
       d="m 407.029,408.15 c -17.129,9.522 -42.429,4.444 -50.649,-14.477 12.753,14.645 32.308,20.261 50.829,14.363 -0.06,0.038 -0.118,0.078 -0.18,0.114 z"
       fill="#2d2d2f"
       id="path21" />
    <path
       d="m 544.399,410.635 c -9.778,0 -18.73,-1.448 -26.859,-4.338 -8.132,-2.895 -14.691,-7.159 -19.677,-12.794 -4.99,-5.636 -7.732,-12.593 -8.23,-20.874 -0.201,-3.391 0.348,-7.131 1.646,-11.223 1.294,-4.089 3.116,-8.155 5.461,-12.196 2.343,-4.04 5.137,-7.68 8.38,-10.923 3.24,-3.24 6.708,-5.709 10.4,-7.406 0.299,-0.199 0.771,-0.348 1.421,-0.45 0.647,-0.097 1.123,-0.148 1.422,-0.148 0.598,0 0.897,0.148 0.897,0.448 0,0.5 -0.748,1.298 -2.244,2.395 -4.189,3.291 -7.632,7.083 -10.325,11.371 -2.794,4.29 -4.888,8.88 -6.284,13.768 -1.399,4.888 -2.096,9.825 -2.096,14.813 0,5.887 1.273,10.949 3.817,15.187 2.543,4.241 5.959,7.733 10.249,10.476 4.288,2.742 9.178,4.761 14.664,6.058 5.486,1.296 11.223,1.946 17.208,1.946 6.682,0 13.292,-0.748 19.827,-2.244 6.532,-1.496 12.495,-3.643 17.881,-6.435 8.279,-4.389 14.838,-9.824 19.678,-16.309 4.836,-6.484 7.257,-12.919 7.257,-19.304 0,-3.39 -0.727,-6.632 -2.171,-9.726 -1.446,-3.09 -3.766,-5.885 -6.957,-8.38 -2.395,-1.893 -5.312,-3.689 -8.755,-5.386 -3.44,-1.695 -7.082,-3.342 -10.922,-4.938 -3.842,-1.594 -7.608,-3.217 -11.298,-4.864 -3.692,-1.645 -6.934,-3.416 -9.725,-5.312 -3.992,-2.692 -6.909,-5.585 -8.755,-8.677 -1.846,-3.092 -2.768,-6.185 -2.768,-9.279 0,-3.689 1.071,-7.28 3.216,-10.773 2.146,-3.491 5.088,-6.659 8.831,-9.501 3.74,-2.844 7.953,-5.062 12.643,-6.659 4.089,-1.397 8.553,-2.492 13.393,-3.292 4.836,-0.797 9.599,-1.197 14.289,-1.197 3.891,0 7.606,0.276 11.148,0.822 3.54,0.55 6.659,1.522 9.352,2.919 3.39,1.596 5.986,3.717 7.782,6.359 1.796,2.644 2.693,5.412 2.693,8.305 0,3.991 -1.796,7.481 -5.388,10.473 -1.297,0.999 -2.744,1.923 -4.339,2.768 -1.597,0.85 -3.493,1.572 -5.686,2.17 -0.4,0.102 -0.848,0.15 -1.346,0.15 -1.197,0 -1.797,-0.348 -1.797,-1.048 0,-0.397 0.324,-0.821 0.973,-1.272 0.648,-0.448 1.622,-0.721 2.919,-0.822 2.993,-0.398 5.26,-1.546 6.808,-3.442 1.545,-1.894 2.319,-4.089 2.319,-6.582 0,-2.595 -0.875,-5.164 -2.619,-7.707 -1.745,-2.544 -4.415,-4.688 -8.005,-6.435 -3.591,-1.745 -8.18,-2.618 -13.766,-2.618 -3.194,0 -6.71,0.35 -10.549,1.046 -3.843,0.7 -8.007,1.848 -12.495,3.443 -5.488,1.896 -10.052,4.691 -13.692,8.379 -3.642,3.692 -5.461,7.632 -5.461,11.822 0,2.595 0.872,5.212 2.619,7.855 1.744,2.644 4.564,5.163 8.454,7.556 3.292,1.997 7.032,3.967 11.223,5.912 4.188,1.944 8.428,3.889 12.719,5.835 4.288,1.945 8.177,4.017 11.67,6.209 5.486,3.393 9.428,7.033 11.822,10.924 2.394,3.889 3.592,7.881 3.592,11.971 0,4.789 -1.422,9.602 -4.266,14.438 -2.844,4.84 -6.56,9.379 -11.148,13.618 -4.588,4.241 -9.628,8.005 -15.113,11.297 -6.385,3.791 -13.592,6.709 -21.623,8.755 -8.03,2.042 -16.136,3.066 -24.314,3.066 z"
       fill="#2d2d2f"
       id="path23" />
    <path
       d="m 636.423,397.39 c 2.294,0 4.588,-0.972 6.882,-2.918 2.295,-1.945 4.39,-4.164 6.286,-6.658 1.893,-2.492 3.24,-4.64 4.04,-6.435 -1.598,-2.892 -2.522,-5.061 -2.768,-6.509 -0.251,-1.446 -0.375,-2.518 -0.375,-3.218 0,-1.893 0.499,-3.34 1.497,-4.338 0.996,-0.996 1.994,-1.496 2.992,-1.496 1.396,0 2.594,0.597 3.592,1.794 0.198,-1.096 0.347,-2.118 0.45,-3.066 0.097,-0.947 0.148,-1.871 0.148,-2.768 0,-2.594 -0.475,-4.715 -1.422,-6.36 -0.948,-1.647 -2.42,-2.468 -4.414,-2.468 -2.095,0 -4.29,0.897 -6.583,2.692 -2.296,1.796 -4.467,4.19 -6.509,7.182 -2.046,2.994 -3.816,6.336 -5.312,10.026 -1.298,3.093 -2.296,6.012 -2.992,8.754 -0.7,2.744 -1.048,5.263 -1.048,7.556 0,2.495 0.448,4.49 1.346,5.986 0.898,1.496 2.294,2.244 4.19,2.244 z m -2.095,3.292 c -4.091,0 -7.108,-1.471 -9.052,-4.414 -1.945,-2.942 -2.919,-6.509 -2.919,-10.7 0,-3.889 0.748,-7.93 2.244,-12.12 1.595,-4.588 3.816,-8.776 6.66,-12.569 2.843,-3.789 5.986,-6.857 9.426,-9.203 3.442,-2.342 6.858,-3.516 10.25,-3.516 4.09,0 7.108,1.399 9.054,4.19 1.944,2.794 2.917,6.337 2.917,10.625 0,2.992 -0.5,6.135 -1.496,9.425 -0.999,3.294 -2.345,6.536 -4.04,9.728 1.295,1.298 3.141,1.946 5.536,1.946 2.792,0 5.185,-0.9 7.181,-2.695 1.995,-1.796 3.94,-4.987 5.838,-9.576 1.196,0 1.796,0.448 1.796,1.347 -1.898,4.589 -4.067,7.956 -6.51,10.1 -2.445,2.145 -5.562,3.168 -9.352,3.066 -2.297,0 -4.19,-0.646 -5.686,-1.945 -2.794,4.591 -6.112,8.455 -9.951,11.597 -3.841,3.143 -7.807,4.714 -11.896,4.714 z"
       fill="#2d2d2f"
       id="path25" />
    <path
       d="m 685.205,367.015 c 3.591,-3.69 7.083,-7.955 10.474,-12.795 3.39,-4.837 6.558,-9.875 9.502,-15.112 2.942,-5.239 5.411,-10.2 7.408,-14.889 0.696,-1.496 1.271,-3.142 1.72,-4.939 0.45,-1.795 0.674,-3.291 0.674,-4.488 0,-1.396 -0.351,-2.095 -1.048,-2.095 -0.4,0 -0.998,0.374 -1.795,1.122 -0.8,0.749 -1.848,2.021 -3.143,3.816 -1.896,2.494 -3.965,5.888 -6.209,10.176 -2.245,4.289 -4.515,8.88 -6.809,13.765 -2.296,4.888 -4.391,9.603 -6.286,14.14 -1.894,4.541 -3.39,8.305 -4.488,11.299 z m -2.245,34.117 c -3.691,0 -6.411,-1.124 -8.155,-3.368 -1.746,-2.244 -2.618,-4.912 -2.618,-8.005 0,-3.192 0.449,-6.483 1.348,-9.876 0.897,-3.39 1.694,-6.232 2.393,-8.53 1.595,-5.585 3.613,-11.545 6.06,-17.88 2.444,-6.334 5.136,-12.57 8.081,-18.705 2.94,-6.136 5.859,-11.645 8.752,-16.535 2.295,-3.89 4.764,-6.808 7.407,-8.753 2.643,-1.945 4.961,-2.919 6.959,-2.919 1.594,0 2.866,0.576 3.816,1.722 0.946,1.148 1.421,2.869 1.421,5.162 0,1.598 -0.276,3.492 -0.823,5.686 -0.55,2.196 -1.473,4.69 -2.769,7.482 -3.492,7.78 -7.656,15.562 -12.495,23.343 -4.838,7.781 -10.948,15.064 -18.329,21.847 -1.197,2.793 -2.195,5.786 -2.992,8.978 -0.8,3.192 -1.197,5.786 -1.197,7.78 0,6.187 2.094,9.278 6.284,9.278 3.192,0 6.733,-2.319 10.624,-6.959 3.892,-4.637 7.58,-10.997 11.073,-19.077 0.397,0 0.797,0.074 1.197,0.224 0.398,0.149 0.599,0.524 0.599,1.122 -1.099,2.694 -2.469,5.663 -4.116,8.903 -1.645,3.243 -3.541,6.311 -5.685,9.203 -2.147,2.894 -4.616,5.262 -7.407,7.108 -2.795,1.848 -5.937,2.769 -9.428,2.769 z"
       fill="#2d2d2f"
       id="path27" />
    <path
       d="m 718.871,397.39 c 2.295,0 4.588,-0.972 6.883,-2.918 2.294,-1.945 4.389,-4.164 6.285,-6.658 1.893,-2.492 3.24,-4.64 4.04,-6.435 -1.597,-2.892 -2.521,-5.061 -2.768,-6.509 -0.251,-1.446 -0.375,-2.518 -0.375,-3.218 0,-1.893 0.499,-3.34 1.498,-4.338 0.996,-0.996 1.993,-1.496 2.992,-1.496 1.396,0 2.593,0.597 3.59,1.794 0.199,-1.096 0.348,-2.118 0.451,-3.066 0.097,-0.947 0.148,-1.871 0.148,-2.768 0,-2.594 -0.475,-4.715 -1.421,-6.36 -0.948,-1.647 -2.42,-2.468 -4.415,-2.468 -2.095,0 -4.289,0.897 -6.583,2.692 -2.296,1.796 -4.466,4.19 -6.509,7.182 -2.045,2.994 -3.816,6.336 -5.312,10.026 -1.297,3.093 -2.296,6.012 -2.992,8.754 -0.7,2.744 -1.048,5.263 -1.048,7.556 0,2.495 0.448,4.49 1.345,5.986 0.899,1.496 2.295,2.244 4.191,2.244 z m -2.095,3.292 c -4.09,0 -7.108,-1.471 -9.052,-4.414 -1.945,-2.942 -2.918,-6.509 -2.918,-10.7 0,-3.889 0.748,-7.93 2.244,-12.12 1.594,-4.588 3.816,-8.776 6.66,-12.569 2.842,-3.789 5.985,-6.857 9.425,-9.203 3.443,-2.342 6.859,-3.516 10.251,-3.516 4.089,0 7.108,1.399 9.053,4.19 1.944,2.794 2.917,6.337 2.917,10.625 0,2.992 -0.5,6.135 -1.496,9.425 -0.998,3.294 -2.345,6.536 -4.041,9.728 1.296,1.298 3.143,1.946 5.537,1.946 2.791,0 5.186,-0.9 7.182,-2.695 1.994,-1.796 3.94,-4.987 5.837,-9.576 1.196,0 1.795,0.448 1.795,1.347 -1.896,4.589 -4.066,7.956 -6.508,10.1 -2.446,2.145 -5.563,3.168 -9.352,3.066 -2.298,0 -4.191,-0.646 -5.687,-1.945 -2.793,4.591 -6.112,8.455 -9.951,11.597 -3.842,3.143 -7.806,4.714 -11.896,4.714 z"
       fill="#2d2d2f"
       id="path29" />
    <path
       d="m 763.313,401.729 c -3.094,0 -5.238,-0.8 -6.434,-2.394 -1.197,-1.594 -1.797,-3.64 -1.797,-6.135 0,-2.593 0.449,-5.536 1.348,-8.828 0.897,-3.292 2.095,-6.981 3.592,-11.073 -1.1,0 -1.647,-0.499 -1.647,-1.496 0.798,-1.995 1.668,-4.264 2.619,-6.81 0.947,-2.542 1.421,-5.409 1.421,-8.604 0,-1.594 -0.201,-2.94 -0.598,-4.04 -0.4,-1.096 -0.999,-1.742 -1.795,-1.945 2.093,-0.397 3.74,-0.696 4.937,-0.897 1.196,-0.198 1.994,-0.3 2.394,-0.3 0.6,-0.098 1.145,-0.172 1.646,-0.224 0.499,-0.05 0.947,-0.074 1.347,-0.074 0.996,0 1.668,0.4 2.02,1.198 0.348,0.798 0.472,2.542 0.375,5.236 -0.102,2.494 -0.6,5.513 -1.498,9.053 -0.897,3.543 -1.846,6.609 -2.842,9.201 -1.298,3.394 -2.495,6.836 -3.591,10.326 -1.1,3.493 -1.647,6.385 -1.647,8.678 0,1.998 0.547,3.292 1.647,3.891 0.797,0.3 1.496,0.449 2.095,0.449 2.293,0 4.537,-1.097 6.733,-3.292 2.192,-2.193 4.264,-4.864 6.209,-8.005 1.946,-3.143 3.566,-6.159 4.864,-9.053 -0.6,-2.294 -0.898,-5.036 -0.898,-8.231 0,-3.389 0.397,-6.831 1.197,-10.324 0.796,-3.491 2.044,-6.408 3.741,-8.753 1.695,-2.343 3.891,-3.516 6.583,-3.516 1.895,0 2.843,0.848 2.843,2.542 0,0.4 -0.474,2.095 -1.422,5.088 -0.948,2.992 -2.169,6.535 -3.665,10.624 -1.496,4.092 -3.093,8.032 -4.788,11.822 -0.4,0.8 -0.748,1.597 -1.048,2.393 0.397,1.697 1.147,3.068 2.245,4.116 1.096,1.048 2.443,1.571 4.04,1.571 1.995,0 3.864,-0.922 5.611,-2.768 1.745,-1.846 3.567,-4.962 5.463,-9.352 1.196,0 1.794,0.448 1.794,1.346 -1.597,3.991 -3.516,7.182 -5.761,9.576 -2.244,2.395 -4.764,3.591 -7.556,3.591 -3.392,0 -5.836,-1.743 -7.332,-5.236 -1.697,3.493 -3.692,6.808 -5.985,9.951 -2.295,3.142 -4.814,5.71 -7.556,7.705 -2.746,1.996 -5.712,2.993 -8.904,2.993 z"
       fill="#2d2d2f"
       id="path31" />
    <path
       d="m 812.69,374.945 c 1.396,0 3.74,-0.524 7.034,-1.57 3.292,-1.048 6.284,-2.718 8.977,-5.014 2.593,-2.293 4.588,-4.812 5.985,-7.557 1.396,-2.743 2.095,-5.061 2.095,-6.957 0,-2.192 -0.799,-3.292 -2.395,-3.292 -1.196,0 -2.842,0.8 -4.937,2.394 -2.095,1.596 -4.691,4.291 -7.78,8.08 -1.896,2.394 -3.692,4.99 -5.387,7.782 -1.697,2.793 -2.894,4.84 -3.592,6.134 z m 2.694,26.335 c -3.691,0 -7.01,-1.196 -9.951,-3.591 -2.943,-2.394 -4.413,-6.034 -4.413,-10.922 0,-4.091 0.921,-8.43 2.768,-13.019 1.844,-4.588 4.288,-8.904 7.332,-12.944 3.041,-4.04 6.434,-7.331 10.174,-9.876 3.74,-2.543 7.506,-3.815 11.298,-3.815 1.894,0 3.74,0.55 5.537,1.646 1.795,1.098 2.693,2.993 2.693,5.686 0,2.495 -0.95,5.238 -2.844,8.23 -1.896,2.993 -4.589,5.786 -8.08,8.38 -1.497,1.098 -3.392,2.146 -5.685,3.141 -2.297,1 -4.591,1.821 -6.884,2.469 -2.296,0.65 -4.189,0.974 -5.687,0.974 -0.5,1.197 -0.972,2.794 -1.421,4.788 -0.448,1.997 -0.673,4.04 -0.673,6.134 0,2.495 0.497,4.74 1.497,6.734 0.996,1.997 2.843,2.993 5.536,2.993 3.292,0 6.359,-0.947 9.203,-2.844 2.842,-1.892 5.386,-4.287 7.63,-7.183 2.246,-2.89 4.164,-5.834 5.762,-8.828 1.594,-2.992 2.844,-5.536 3.741,-7.63 1.197,0 1.795,0.448 1.795,1.348 -1.298,2.792 -2.768,5.834 -4.414,9.125 -1.645,3.293 -3.59,6.361 -5.836,9.204 -2.245,2.843 -4.937,5.188 -8.08,7.033 -3.142,1.846 -6.809,2.767 -10.998,2.767 z"
       fill="#2d2d2f"
       id="path33" />
    <path
       d="m 847.855,401.729 c -3.094,0 -5.238,-0.8 -6.434,-2.394 -1.197,-1.594 -1.797,-3.64 -1.797,-6.135 0,-2.593 0.449,-5.536 1.348,-8.828 0.897,-3.292 2.095,-6.981 3.592,-11.073 -1.1,0 -1.647,-0.499 -1.647,-1.496 0.798,-1.995 1.668,-4.264 2.619,-6.81 0.947,-2.542 1.421,-5.409 1.421,-8.604 0,-1.594 -0.201,-2.94 -0.598,-4.04 -0.4,-1.096 -0.999,-1.742 -1.795,-1.945 2.093,-0.397 3.74,-0.696 4.937,-0.897 1.196,-0.198 1.994,-0.3 2.394,-0.3 0.6,-0.098 1.145,-0.172 1.646,-0.224 0.498,-0.05 0.947,-0.074 1.347,-0.074 0.996,0 1.668,0.4 2.02,1.198 0.348,0.798 0.472,2.542 0.375,5.236 -0.102,2.494 -0.6,5.513 -1.498,9.053 -0.897,3.543 -1.846,6.609 -2.842,9.201 -1.298,3.394 -2.495,6.836 -3.591,10.326 -1.1,3.493 -1.647,6.385 -1.647,8.678 0,1.998 0.547,3.292 1.647,3.891 0.797,0.3 1.496,0.449 2.095,0.449 2.293,0 4.537,-1.097 6.733,-3.292 2.192,-2.193 4.264,-4.864 6.209,-8.005 1.946,-3.143 3.566,-6.159 4.864,-9.053 -0.6,-2.294 -0.898,-5.036 -0.898,-8.231 0,-3.389 0.397,-6.831 1.197,-10.324 0.796,-3.491 2.044,-6.408 3.741,-8.753 1.695,-2.343 3.891,-3.516 6.583,-3.516 1.895,0 2.843,0.848 2.843,2.542 0,0.4 -0.474,2.095 -1.422,5.088 -0.948,2.992 -2.169,6.535 -3.665,10.624 -1.496,4.092 -3.093,8.032 -4.788,11.822 -0.4,0.8 -0.748,1.597 -1.048,2.393 0.397,1.697 1.147,3.068 2.245,4.116 1.096,1.048 2.443,1.571 4.04,1.571 1.995,0 3.864,-0.922 5.611,-2.768 1.745,-1.846 3.567,-4.962 5.461,-9.352 1.198,0 1.796,0.448 1.796,1.346 -1.597,3.991 -3.516,7.182 -5.761,9.576 -2.244,2.395 -4.764,3.591 -7.556,3.591 -3.392,0 -5.836,-1.743 -7.332,-5.236 -1.697,3.493 -3.692,6.808 -5.985,9.951 -2.295,3.142 -4.814,5.71 -7.556,7.705 -2.746,1.996 -5.712,2.993 -8.904,2.993 z"
       fill="#2d2d2f"
       id="path35" />
    <path
       d="m 921.622,401.131 c -2.297,0 -4.316,-0.649 -6.061,-1.946 -1.746,-1.295 -2.619,-3.939 -2.619,-7.931 0,-1.695 0.124,-3.291 0.376,-4.788 0.247,-1.496 0.572,-3.091 0.972,-4.788 -0.899,1.496 -2.147,3.344 -3.741,5.536 -1.598,2.197 -3.367,4.34 -5.312,6.435 -1.944,2.096 -3.942,3.841 -5.986,5.237 -2.046,1.399 -3.965,2.096 -5.761,2.096 -2.595,0 -4.689,-1.172 -6.284,-3.517 -1.597,-2.343 -2.394,-5.411 -2.394,-9.203 0,-4.089 0.946,-8.479 2.843,-13.167 1.894,-4.688 4.488,-9.177 7.78,-13.468 3.294,-4.288 7.083,-7.781 11.374,-10.474 4.288,-2.694 8.776,-4.039 13.466,-4.039 2.294,0 4.49,0.373 6.584,1.121 2.094,0.748 3.939,1.971 5.536,3.667 0.698,0.697 1.048,1.495 1.048,2.393 0,0.599 -0.25,1.099 -0.748,1.496 -0.5,0.4 -1.148,0.502 -1.945,0.3 -1.1,-3.492 -3.443,-5.237 -7.033,-5.237 -1.698,0 -3.643,0.549 -5.836,1.645 -2.694,1.399 -5.563,3.618 -8.603,6.659 -3.046,3.045 -5.888,6.485 -8.531,10.325 -2.644,3.842 -4.813,7.706 -6.509,11.598 -1.697,3.889 -2.543,7.43 -2.543,10.622 0,3.294 1.246,4.939 3.74,4.939 2.194,0 4.464,-1.048 6.81,-3.143 2.342,-2.094 4.586,-4.713 6.733,-7.854 2.143,-3.143 4.115,-6.26 5.909,-9.354 1.798,-3.09 3.192,-5.585 4.191,-7.481 1.496,-2.693 2.892,-4.937 4.189,-6.733 1.296,-1.796 3.143,-2.695 5.538,-2.695 1.096,0 2.193,0.151 3.29,0.449 1.098,0.3 2.245,0.351 3.443,0.151 -2.994,2.992 -5.612,6.533 -7.856,10.623 -2.245,4.093 -3.965,8.106 -5.163,12.046 -1.197,3.942 -1.794,7.258 -1.794,9.951 0,2.992 0.994,4.489 2.992,4.489 1.593,0 3.314,-0.898 5.162,-2.694 1.844,-1.795 3.64,-4.064 5.387,-6.807 1.744,-2.743 3.367,-5.537 4.863,-8.38 1.497,-2.844 2.694,-5.312 3.592,-7.408 0.497,0 0.921,0.052 1.272,0.151 0.348,0.1 0.522,0.5 0.522,1.197 -0.1,0.399 -0.276,0.821 -0.522,1.272 -0.251,0.448 -0.624,1.221 -1.123,2.319 -0.8,1.597 -1.896,3.74 -3.292,6.433 -1.397,2.695 -3.044,5.413 -4.937,8.156 -1.898,2.745 -3.943,5.064 -6.136,6.957 -2.195,1.898 -4.49,2.844 -6.883,2.844 z"
       fill="#2d2d2f"
       id="path37" />
    <path
       d="m 549.335,463.231 h 2.362 v 19.107 c -2.263,2.164 -4.955,3.811 -8.078,4.941 -3.125,1.132 -6.456,1.698 -9.996,1.698 -5.066,0 -9.64,-1.131 -13.722,-3.394 -4.082,-2.262 -7.291,-5.385 -9.626,-9.369 -2.336,-3.984 -3.504,-8.433 -3.504,-13.352 0,-4.916 1.168,-9.368 3.504,-13.352 2.335,-3.983 5.544,-7.105 9.626,-9.369 4.082,-2.262 8.656,-3.394 13.722,-3.394 3.688,0 7.082,0.567 10.18,1.698 3.098,1.132 5.754,2.829 7.967,5.09 l -1.475,1.696 c -4.28,-4.13 -9.812,-6.196 -16.598,-6.196 -4.624,0 -8.792,1.044 -12.504,3.135 -3.715,2.091 -6.627,4.956 -8.742,8.595 -2.114,3.64 -3.172,7.67 -3.172,12.097 0,4.427 1.058,8.46 3.172,12.099 2.115,3.64 5.027,6.504 8.742,8.594 3.712,2.091 7.88,3.134 12.504,3.134 6.441,0 11.656,-1.794 15.638,-5.384 z"
       fill="#2d2d2f"
       id="path39" />
    <path
       d="m 587.178,469.059 c 5.753,0 10.18,-1.291 13.278,-3.873 3.099,-2.582 4.647,-6.258 4.647,-11.028 0,-4.722 -1.548,-8.374 -4.647,-10.955 -3.098,-2.581 -7.525,-3.873 -13.278,-3.873 h -15.566 v 29.729 z m 18.22,19.623 -12.762,-17.779 c -1.673,0.295 -3.541,0.443 -5.606,0.443 h -15.418 v 17.336 h -2.508 v -51.639 h 17.926 c 6.442,0 11.47,1.512 15.086,4.537 3.615,3.024 5.422,7.218 5.422,12.578 0,4.13 -1.071,7.586 -3.21,10.364 -2.14,2.778 -5.2,4.709 -9.184,5.79 l 13.204,18.37 z"
       fill="#2d2d2f"
       id="path41" />
    <path
       d="m 655.781,483.591 c 3.69,-2.066 6.59,-4.916 8.706,-8.558 2.113,-3.638 3.17,-7.696 3.17,-12.172 0,-4.473 -1.057,-8.53 -3.17,-12.17 -2.116,-3.64 -5.016,-6.491 -8.706,-8.558 -3.688,-2.065 -7.796,-3.098 -12.318,-3.098 -4.526,0 -8.62,1.033 -12.283,3.098 -3.665,2.067 -6.553,4.918 -8.668,8.558 -2.115,3.64 -3.172,7.697 -3.172,12.17 0,4.476 1.057,8.534 3.172,12.172 2.115,3.642 5.003,6.492 8.668,8.558 3.663,2.066 7.757,3.098 12.283,3.098 4.522,0 8.63,-1.032 12.318,-3.098 z m -25.929,1.992 c -4.059,-2.262 -7.243,-5.384 -9.553,-9.368 -2.312,-3.984 -3.467,-8.435 -3.467,-13.354 0,-4.916 1.155,-9.368 3.467,-13.352 2.31,-3.982 5.494,-7.105 9.553,-9.368 4.057,-2.261 8.595,-3.393 13.611,-3.393 5.016,0 9.564,1.132 13.646,3.393 4.082,2.263 7.278,5.386 9.591,9.368 2.311,3.984 3.467,8.436 3.467,13.352 0,4.919 -1.156,9.37 -3.467,13.354 -2.313,3.984 -5.509,7.106 -9.591,9.368 -4.082,2.262 -8.63,3.393 -13.646,3.393 -5.016,0 -9.554,-1.131 -13.611,-3.393 z"
       fill="#2d2d2f"
       id="path43" />
    <path
       d="m 688.719,483.37 c -3.567,-3.736 -5.347,-9.222 -5.347,-16.45 v -29.877 h 2.507 v 29.803 c 0,6.59 1.524,11.544 4.573,14.864 3.049,3.32 7.451,4.98 13.205,4.98 5.704,0 10.094,-1.66 13.168,-4.98 3.074,-3.32 4.61,-8.274 4.61,-14.864 v -29.803 h 2.434 v 29.877 c 0,7.228 -1.769,12.714 -5.312,16.45 -3.54,3.738 -8.508,5.606 -14.9,5.606 -6.394,0 -11.373,-1.868 -14.938,-5.606 z"
       fill="#2d2d2f"
       id="path45" />
    <path
       d="m 773.665,465.186 c 3.098,-2.582 4.646,-6.258 4.646,-11.028 0,-4.721 -1.548,-8.373 -4.646,-10.956 -3.099,-2.58 -7.524,-3.872 -13.279,-3.872 h -15.565 v 29.73 h 15.565 c 5.755,0 10.18,-1.291 13.279,-3.874 z m 1.66,-23.606 c 3.614,3.025 5.421,7.218 5.421,12.578 0,5.41 -1.807,9.627 -5.421,12.651 -3.615,3.024 -8.644,4.537 -15.087,4.537 h -15.417 v 17.335 h -2.509 v -51.639 h 17.926 c 6.443,0 11.472,1.514 15.087,4.538 z"
       fill="#2d2d2f"
       id="path47" />
  </g>
  <g
     mask="url(#mask0_305_321)"
     id="g382"
     transform="translate(-198.17466,-256.95388)">
    <path
       d="m 437.111,388.423 c 0.048,-0.036 0.132,-0.071 0.204,-0.108 -1.844,8.941 -4.477,18.05 -9.756,25.638 -5.027,-10.7 -1.364,-18.624 9.552,-25.53 z m -50.905,52.102 c -4.37,-9.742 -11.886,-16.601 -21.27,-21.377 -12.364,-6.308 -20.742,5.625 -43.76,-0.563 -39.881,-11.574 -41.521,-50.581 -31.957,-77.249 -18.265,-10.437 -24.561,-33.813 -16.471,-52.772 1.712,-4.537 4.466,-9.336 8.116,-12.952 5.434,-5.349 13.728,-6.176 20.24,-2.177 17.679,10.844 22.67,37.26 54.376,28.677 -11.921,0.923 -23.674,-6.631 -30.114,-16.289 22.37,-2.586 44.613,13.753 59.009,28.438 -0.024,-0.06 -8.787,-17.762 -16.447,-24.429 13.442,7.121 36.95,27.207 36.95,27.207 -18.828,15.069 25.028,47.11 33.154,60.42 -2.082,6.081 -26.738,8.104 -34.638,-5.96 -5.087,10.449 5.889,17.462 14.614,19.713 9.971,2.465 2.167,16.601 -5.601,21.161 -17.943,10.378 -41.773,7.924 -53.875,-10.042 4.884,16.877 25.076,28.128 41.666,20.862 5.985,-2.681 11.897,-5.541 18.277,-7.229 1.867,1.041 3.771,1.832 5.757,2.585 3.998,28.044 -23.866,25.795 -38.026,21.976 z m 1.616,-167.689 c -5.626,3.459 -9.05,7.876 -11.192,14.076 -1.148,-0.563 -2.322,-1.125 -3.411,-1.82 2.047,-4.907 5.255,-10.64 14.603,-12.256 z m -18.516,0.083 c 5.325,-2.788 19.437,-16.648 21.137,-4.476 -9.252,0.024 -17.176,6.57 -20.54,15.009 -3.829,-1.723 -7.887,-2.872 -11.813,-4.368 3.866,-1.904 7.529,-3.951 11.216,-6.165 z m 35.464,59.762 c -0.515,0 -0.922,-0.418 -0.922,-0.921 0,-0.527 0.407,-0.921 0.922,-0.921 0.502,0 0.921,0.394 0.921,0.921 0,0.503 -0.419,0.921 -0.921,0.921 z m 3.172,0.827 c 0.288,1.76 -2.131,5.039 -2.872,1.939 1.508,-0.766 2.106,-1.15 2.872,-1.939 z m 1.52,-6.188 c -3.172,-3.759 -6.703,3.016 -6.703,3.016 -1.7,-6.152 4.932,-9.863 6.703,-3.016 z m 34.71,49.624 c -10.628,-12.747 -22.01,-24.968 -33.585,-36.877 1.101,-3.172 1.113,-5.518 0.18,-8.738 8.737,-14.901 -11.06,-27.337 -21.151,-35.692 12.652,-22.861 8.691,-54.892 -20.072,-29.133 -16.11,14.459 -37.572,5.829 -56.434,10.413 -8.81,-13.01 -47.531,-29.744 -51.612,38.924 -35.298,12.268 -112.38,114.535 -18.338,204.974 -4.716,-14.124 -9.43,-26.931 -11.969,-41.712 22.312,25.242 54.077,39.857 86,48.822 -49.637,-27.362 -99.249,-51.169 -104.216,-114.594 -0.815,29.097 7.576,57.609 17.523,84.67 -35.562,-54.184 -31.887,-122.265 18.922,-165.462 -0.082,-0.084 0.048,-0.228 0.156,-0.156 0.12,0.084 -0.036,0.276 -0.156,0.156 -60.277,86.322 53.156,187.318 132.752,207.332 C 307.208,503.112 198.348,409.968 267.71,322.149 c -24.118,49.528 -13.824,104.228 26.38,141.872 24.226,24.406 48.536,50.702 80.11,65.496 -24.082,-13.118 -37.188,-37.966 -48.666,-61.809 -15.022,-32.58 -47.998,-43.377 -50.619,-83.653 0,0 10.796,28.941 36.028,54.686 9.575,9.756 17.2,21.27 22.813,33.743 1.472,3.267 2.932,6.535 4.464,9.719 13.766,31.789 45.16,49.265 75.886,61.725 -24.764,-22.969 -54.03,-45.961 -62,-80.481 -3.687,-13.454 -3.364,-30.558 8.006,-40.336 10.043,4.356 19.02,12.256 22.347,22.705 19.379,5.171 52.103,1.699 46.501,-26.285 11.035,-12.46 14.71,-26.224 15.212,-42.587 z"
       fill="#2d2d2f"
       id="path338" />
    <path
       d="m 288.77,304.248 c 9.816,-5.593 22.431,-2.584 30.203,5.155 -5.796,-0.427 -14.726,-0.044 -20.095,10.335 5.752,-4.427 14.141,-5.46 20.207,-1.046 -11.019,1.034 -19.522,10.626 -17.847,21.812 -8.2,-4.694 -16.287,-9.636 -21.151,-18.072 -8.21,-15.365 -5.009,-39.513 12.12,-47.274 13.759,7.21 24.666,20.464 30.336,34.808 -7.468,-10.48 -23.732,-15.512 -33.773,-5.718 z"
       fill="#2d2d2f"
       id="path340" />
    <path
       d="m 355.981,336.248 c 1.46,-0.753 2.897,-1.551 4.38,-2.247 -0.359,6.74 7.403,9.402 10.749,3.348 0.731,8.76 -14.556,6.391 -15.129,-1.101 z m 11.524,-2.212 c 0.708,0 1.28,0.584 1.28,1.291 0,0.708 -0.572,1.292 -1.28,1.292 -0.067,0 -0.135,0 -0.203,-0.023 -0.617,-0.089 -1.089,-0.629 -1.089,-1.269 0,-0.707 0.573,-1.291 1.292,-1.291 z m 13.837,3.515 c -3.133,-8.076 0.574,-16.994 -9.737,-21.116 -14.692,-5.638 -25.732,8.457 -37.695,14.22 17.871,-3.448 39.492,-21.846 45.635,7.233 -10.76,-24.013 -29.429,-1.507 -47.219,-3.313 0.08,0.045 13.636,4.953 20.039,3.245 4.088,11.648 15.051,7.189 23.901,8.616 4.256,1.369 10.187,5.571 13.5,8.648 -2.313,-6.077 -5.852,-11.603 -8.424,-17.533 z"
       fill="#2d2d2f"
       id="path342" />
    <path
       d="m 371.164,349.558 c -7.864,6.517 -23.518,0.15 -23.957,-10.042 4.928,8.503 16.683,12.711 25.676,8.42 -0.552,0.582 -1.083,1.132 -1.719,1.622 z"
       fill="#2d2d2f"
       id="path344" />
    <path
       d="m 403.459,403.545 c -14.545,5.687 -26.604,1.304 -37.334,-6.685 -7.647,-5.695 -15.846,-10.596 -24.391,-14.824 -15.095,-7.468 -21.145,-14.528 -19.351,-40.343 2.332,23.661 9.094,31.323 26.079,39.899 5.552,2.802 10.785,6.192 15.616,10.11 11.971,9.707 24.385,14.547 41.261,10.97 -0.617,0.341 -1.224,0.614 -1.88,0.873 z"
       fill="#2d2d2f"
       id="path346" />
    <path
       d="m 301.186,379.299 c 0,-11.597 4.268,-22.934 9.843,-32.934 -6.774,19.806 -6.223,43.666 10.57,58.37 -4.008,-6.889 -5.217,-14.442 -3.564,-22.274 2.744,16.254 16.97,27.481 32.64,30.277 -39.846,11.159 -67.198,-19.349 -54.246,-58.08 -1.512,10.913 0.446,22.529 5.789,32.149 -0.149,0.108 0.073,0.308 0.165,0.148 0.058,-0.1 -0.072,-0.216 -0.165,-0.148 -0.42,-2.508 -0.997,-4.945 -1.032,-7.508 z"
       fill="#2d2d2f"
       id="path348" />
    <path
       d="m 371.51,392.108 c -1.859,-1.443 -7.363,-6.636 -7.501,-9.008 11.13,11.503 24.78,14.324 40.134,14.107 l -0.089,0.122 0.072,-0.153 0.195,0.073 c -11.316,1.536 -23.16,2.224 -32.811,-5.141 z"
       fill="#2d2d2f"
       id="path350" />
    <path
       d="M 220.875,384.971 C 207.253,452.38 272.369,510.564 351.911,536.03 350.509,535.582 228.728,484.202 220.875,384.971 Z"
       fill="#2d2d2f"
       id="path352" />
    <path
       d="m 407.029,408.15 c -17.129,9.522 -42.429,4.444 -50.649,-14.477 12.753,14.645 32.308,20.261 50.829,14.363 -0.06,0.038 -0.118,0.078 -0.18,0.114 z"
       fill="#2d2d2f"
       id="path354" />
    <path
       d="m 544.399,410.635 c -9.778,0 -18.73,-1.448 -26.859,-4.338 -8.132,-2.895 -14.691,-7.159 -19.677,-12.794 -4.99,-5.636 -7.732,-12.593 -8.23,-20.874 -0.201,-3.391 0.348,-7.131 1.646,-11.223 1.294,-4.089 3.116,-8.155 5.461,-12.196 2.343,-4.04 5.137,-7.68 8.38,-10.923 3.24,-3.24 6.708,-5.709 10.4,-7.406 0.299,-0.199 0.771,-0.348 1.421,-0.45 0.647,-0.097 1.123,-0.148 1.422,-0.148 0.598,0 0.897,0.148 0.897,0.448 0,0.5 -0.748,1.298 -2.244,2.395 -4.189,3.291 -7.632,7.083 -10.325,11.371 -2.794,4.29 -4.888,8.88 -6.284,13.768 -1.399,4.888 -2.096,9.825 -2.096,14.813 0,5.887 1.273,10.949 3.817,15.187 2.543,4.241 5.959,7.733 10.249,10.476 4.288,2.742 9.178,4.761 14.664,6.058 5.486,1.296 11.223,1.946 17.208,1.946 6.682,0 13.292,-0.748 19.827,-2.244 6.532,-1.496 12.495,-3.643 17.881,-6.435 8.279,-4.389 14.838,-9.824 19.678,-16.309 4.836,-6.484 7.257,-12.919 7.257,-19.304 0,-3.39 -0.727,-6.632 -2.171,-9.726 -1.446,-3.09 -3.766,-5.885 -6.957,-8.38 -2.395,-1.893 -5.312,-3.689 -8.755,-5.386 -3.44,-1.695 -7.082,-3.342 -10.922,-4.938 -3.842,-1.594 -7.608,-3.217 -11.298,-4.864 -3.692,-1.645 -6.934,-3.416 -9.725,-5.312 -3.992,-2.692 -6.909,-5.585 -8.755,-8.677 -1.846,-3.092 -2.768,-6.185 -2.768,-9.279 0,-3.689 1.071,-7.28 3.216,-10.773 2.146,-3.491 5.088,-6.659 8.831,-9.501 3.74,-2.844 7.953,-5.062 12.643,-6.659 4.089,-1.397 8.553,-2.492 13.393,-3.292 4.836,-0.797 9.599,-1.197 14.289,-1.197 3.891,0 7.606,0.276 11.148,0.822 3.54,0.55 6.659,1.522 9.352,2.919 3.39,1.596 5.986,3.717 7.782,6.359 1.796,2.644 2.693,5.412 2.693,8.305 0,3.991 -1.796,7.481 -5.388,10.473 -1.297,0.999 -2.744,1.923 -4.339,2.768 -1.597,0.85 -3.493,1.572 -5.686,2.17 -0.4,0.102 -0.848,0.15 -1.346,0.15 -1.197,0 -1.797,-0.348 -1.797,-1.048 0,-0.397 0.324,-0.821 0.973,-1.272 0.648,-0.448 1.622,-0.721 2.919,-0.822 2.993,-0.398 5.26,-1.546 6.808,-3.442 1.545,-1.894 2.319,-4.089 2.319,-6.582 0,-2.595 -0.875,-5.164 -2.619,-7.707 -1.745,-2.544 -4.415,-4.688 -8.005,-6.435 -3.591,-1.745 -8.18,-2.618 -13.766,-2.618 -3.194,0 -6.71,0.35 -10.549,1.046 -3.843,0.7 -8.007,1.848 -12.495,3.443 -5.488,1.896 -10.052,4.691 -13.692,8.379 -3.642,3.692 -5.461,7.632 -5.461,11.822 0,2.595 0.872,5.212 2.619,7.855 1.744,2.644 4.564,5.163 8.454,7.556 3.292,1.997 7.032,3.967 11.223,5.912 4.188,1.944 8.428,3.889 12.719,5.835 4.288,1.945 8.177,4.017 11.67,6.209 5.486,3.393 9.428,7.033 11.822,10.924 2.394,3.889 3.592,7.881 3.592,11.971 0,4.789 -1.422,9.602 -4.266,14.438 -2.844,4.84 -6.56,9.379 -11.148,13.618 -4.588,4.241 -9.628,8.005 -15.113,11.297 -6.385,3.791 -13.592,6.709 -21.623,8.755 -8.03,2.042 -16.136,3.066 -24.314,3.066 z"
       fill="#2d2d2f"
       id="path356" />
    <path
       d="m 636.423,397.39 c 2.294,0 4.588,-0.972 6.882,-2.918 2.295,-1.945 4.39,-4.164 6.286,-6.658 1.893,-2.492 3.24,-4.64 4.04,-6.435 -1.598,-2.892 -2.522,-5.061 -2.768,-6.509 -0.251,-1.446 -0.375,-2.518 -0.375,-3.218 0,-1.893 0.499,-3.34 1.497,-4.338 0.996,-0.996 1.994,-1.496 2.992,-1.496 1.396,0 2.594,0.597 3.592,1.794 0.198,-1.096 0.347,-2.118 0.45,-3.066 0.097,-0.947 0.148,-1.871 0.148,-2.768 0,-2.594 -0.475,-4.715 -1.422,-6.36 -0.948,-1.647 -2.42,-2.468 -4.414,-2.468 -2.095,0 -4.29,0.897 -6.583,2.692 -2.296,1.796 -4.467,4.19 -6.509,7.182 -2.046,2.994 -3.816,6.336 -5.312,10.026 -1.298,3.093 -2.296,6.012 -2.992,8.754 -0.7,2.744 -1.048,5.263 -1.048,7.556 0,2.495 0.448,4.49 1.346,5.986 0.898,1.496 2.294,2.244 4.19,2.244 z m -2.095,3.292 c -4.091,0 -7.108,-1.471 -9.052,-4.414 -1.945,-2.942 -2.919,-6.509 -2.919,-10.7 0,-3.889 0.748,-7.93 2.244,-12.12 1.595,-4.588 3.816,-8.776 6.66,-12.569 2.843,-3.789 5.986,-6.857 9.426,-9.203 3.442,-2.342 6.858,-3.516 10.25,-3.516 4.09,0 7.108,1.399 9.054,4.19 1.944,2.794 2.917,6.337 2.917,10.625 0,2.992 -0.5,6.135 -1.496,9.425 -0.999,3.294 -2.345,6.536 -4.04,9.728 1.295,1.298 3.141,1.946 5.536,1.946 2.792,0 5.185,-0.9 7.181,-2.695 1.995,-1.796 3.94,-4.987 5.838,-9.576 1.196,0 1.796,0.448 1.796,1.347 -1.898,4.589 -4.067,7.956 -6.51,10.1 -2.445,2.145 -5.562,3.168 -9.352,3.066 -2.297,0 -4.19,-0.646 -5.686,-1.945 -2.794,4.591 -6.112,8.455 -9.951,11.597 -3.841,3.143 -7.807,4.714 -11.896,4.714 z"
       fill="#2d2d2f"
       id="path358" />
    <path
       d="m 685.205,367.015 c 3.591,-3.69 7.083,-7.955 10.474,-12.795 3.39,-4.837 6.558,-9.875 9.502,-15.112 2.942,-5.239 5.411,-10.2 7.408,-14.889 0.696,-1.496 1.271,-3.142 1.72,-4.939 0.45,-1.795 0.674,-3.291 0.674,-4.488 0,-1.396 -0.351,-2.095 -1.048,-2.095 -0.4,0 -0.998,0.374 -1.795,1.122 -0.8,0.749 -1.848,2.021 -3.143,3.816 -1.896,2.494 -3.965,5.888 -6.209,10.176 -2.245,4.289 -4.515,8.88 -6.809,13.765 -2.296,4.888 -4.391,9.603 -6.286,14.14 -1.894,4.541 -3.39,8.305 -4.488,11.299 z m -2.245,34.117 c -3.691,0 -6.411,-1.124 -8.155,-3.368 -1.746,-2.244 -2.618,-4.912 -2.618,-8.005 0,-3.192 0.449,-6.483 1.348,-9.876 0.897,-3.39 1.694,-6.232 2.393,-8.53 1.595,-5.585 3.613,-11.545 6.06,-17.88 2.444,-6.334 5.136,-12.57 8.081,-18.705 2.94,-6.136 5.859,-11.645 8.752,-16.535 2.295,-3.89 4.764,-6.808 7.407,-8.753 2.643,-1.945 4.961,-2.919 6.959,-2.919 1.594,0 2.866,0.576 3.816,1.722 0.946,1.148 1.421,2.869 1.421,5.162 0,1.598 -0.276,3.492 -0.823,5.686 -0.55,2.196 -1.473,4.69 -2.769,7.482 -3.492,7.78 -7.656,15.562 -12.495,23.343 -4.838,7.781 -10.948,15.064 -18.329,21.847 -1.197,2.793 -2.195,5.786 -2.992,8.978 -0.8,3.192 -1.197,5.786 -1.197,7.78 0,6.187 2.094,9.278 6.284,9.278 3.192,0 6.733,-2.319 10.624,-6.959 3.892,-4.637 7.58,-10.997 11.073,-19.077 0.397,0 0.797,0.074 1.197,0.224 0.398,0.149 0.599,0.524 0.599,1.122 -1.099,2.694 -2.469,5.663 -4.116,8.903 -1.645,3.243 -3.541,6.311 -5.685,9.203 -2.147,2.894 -4.616,5.262 -7.407,7.108 -2.795,1.848 -5.937,2.769 -9.428,2.769 z"
       fill="#2d2d2f"
       id="path360" />
    <path
       d="m 718.871,397.39 c 2.295,0 4.588,-0.972 6.883,-2.918 2.294,-1.945 4.389,-4.164 6.285,-6.658 1.893,-2.492 3.24,-4.64 4.04,-6.435 -1.597,-2.892 -2.521,-5.061 -2.768,-6.509 -0.251,-1.446 -0.375,-2.518 -0.375,-3.218 0,-1.893 0.499,-3.34 1.498,-4.338 0.996,-0.996 1.993,-1.496 2.992,-1.496 1.396,0 2.593,0.597 3.59,1.794 0.199,-1.096 0.348,-2.118 0.451,-3.066 0.097,-0.947 0.148,-1.871 0.148,-2.768 0,-2.594 -0.475,-4.715 -1.421,-6.36 -0.948,-1.647 -2.42,-2.468 -4.415,-2.468 -2.095,0 -4.289,0.897 -6.583,2.692 -2.296,1.796 -4.466,4.19 -6.509,7.182 -2.045,2.994 -3.816,6.336 -5.312,10.026 -1.297,3.093 -2.296,6.012 -2.992,8.754 -0.7,2.744 -1.048,5.263 -1.048,7.556 0,2.495 0.448,4.49 1.345,5.986 0.899,1.496 2.295,2.244 4.191,2.244 z m -2.095,3.292 c -4.09,0 -7.108,-1.471 -9.052,-4.414 -1.945,-2.942 -2.918,-6.509 -2.918,-10.7 0,-3.889 0.748,-7.93 2.244,-12.12 1.594,-4.588 3.816,-8.776 6.66,-12.569 2.842,-3.789 5.985,-6.857 9.425,-9.203 3.443,-2.342 6.859,-3.516 10.251,-3.516 4.089,0 7.108,1.399 9.053,4.19 1.944,2.794 2.917,6.337 2.917,10.625 0,2.992 -0.5,6.135 -1.496,9.425 -0.998,3.294 -2.345,6.536 -4.041,9.728 1.296,1.298 3.143,1.946 5.537,1.946 2.791,0 5.186,-0.9 7.182,-2.695 1.994,-1.796 3.94,-4.987 5.837,-9.576 1.196,0 1.795,0.448 1.795,1.347 -1.896,4.589 -4.066,7.956 -6.508,10.1 -2.446,2.145 -5.563,3.168 -9.352,3.066 -2.298,0 -4.191,-0.646 -5.687,-1.945 -2.793,4.591 -6.112,8.455 -9.951,11.597 -3.842,3.143 -7.806,4.714 -11.896,4.714 z"
       fill="#2d2d2f"
       id="path362" />
    <path
       d="m 763.313,401.729 c -3.094,0 -5.238,-0.8 -6.434,-2.394 -1.197,-1.594 -1.797,-3.64 -1.797,-6.135 0,-2.593 0.449,-5.536 1.348,-8.828 0.897,-3.292 2.095,-6.981 3.592,-11.073 -1.1,0 -1.647,-0.499 -1.647,-1.496 0.798,-1.995 1.668,-4.264 2.619,-6.81 0.947,-2.542 1.421,-5.409 1.421,-8.604 0,-1.594 -0.201,-2.94 -0.598,-4.04 -0.4,-1.096 -0.999,-1.742 -1.795,-1.945 2.093,-0.397 3.74,-0.696 4.937,-0.897 1.196,-0.198 1.994,-0.3 2.394,-0.3 0.6,-0.098 1.145,-0.172 1.646,-0.224 0.499,-0.05 0.947,-0.074 1.347,-0.074 0.996,0 1.668,0.4 2.02,1.198 0.348,0.798 0.472,2.542 0.375,5.236 -0.102,2.494 -0.6,5.513 -1.498,9.053 -0.897,3.543 -1.846,6.609 -2.842,9.201 -1.298,3.394 -2.495,6.836 -3.591,10.326 -1.1,3.493 -1.647,6.385 -1.647,8.678 0,1.998 0.547,3.292 1.647,3.891 0.797,0.3 1.496,0.449 2.095,0.449 2.293,0 4.537,-1.097 6.733,-3.292 2.192,-2.193 4.264,-4.864 6.209,-8.005 1.946,-3.143 3.566,-6.159 4.864,-9.053 -0.6,-2.294 -0.898,-5.036 -0.898,-8.231 0,-3.389 0.397,-6.831 1.197,-10.324 0.796,-3.491 2.044,-6.408 3.741,-8.753 1.695,-2.343 3.891,-3.516 6.583,-3.516 1.895,0 2.843,0.848 2.843,2.542 0,0.4 -0.474,2.095 -1.422,5.088 -0.948,2.992 -2.169,6.535 -3.665,10.624 -1.496,4.092 -3.093,8.032 -4.788,11.822 -0.4,0.8 -0.748,1.597 -1.048,2.393 0.397,1.697 1.147,3.068 2.245,4.116 1.096,1.048 2.443,1.571 4.04,1.571 1.995,0 3.864,-0.922 5.611,-2.768 1.745,-1.846 3.567,-4.962 5.463,-9.352 1.196,0 1.794,0.448 1.794,1.346 -1.597,3.991 -3.516,7.182 -5.761,9.576 -2.244,2.395 -4.764,3.591 -7.556,3.591 -3.392,0 -5.836,-1.743 -7.332,-5.236 -1.697,3.493 -3.692,6.808 -5.985,9.951 -2.295,3.142 -4.814,5.71 -7.556,7.705 -2.746,1.996 -5.712,2.993 -8.904,2.993 z"
       fill="#2d2d2f"
       id="path364" />
    <path
       d="m 812.69,374.945 c 1.396,0 3.74,-0.524 7.034,-1.57 3.292,-1.048 6.284,-2.718 8.977,-5.014 2.593,-2.293 4.588,-4.812 5.985,-7.557 1.396,-2.743 2.095,-5.061 2.095,-6.957 0,-2.192 -0.799,-3.292 -2.395,-3.292 -1.196,0 -2.842,0.8 -4.937,2.394 -2.095,1.596 -4.691,4.291 -7.78,8.08 -1.896,2.394 -3.692,4.99 -5.387,7.782 -1.697,2.793 -2.894,4.84 -3.592,6.134 z m 2.694,26.335 c -3.691,0 -7.01,-1.196 -9.951,-3.591 -2.943,-2.394 -4.413,-6.034 -4.413,-10.922 0,-4.091 0.921,-8.43 2.768,-13.019 1.844,-4.588 4.288,-8.904 7.332,-12.944 3.041,-4.04 6.434,-7.331 10.174,-9.876 3.74,-2.543 7.506,-3.815 11.298,-3.815 1.894,0 3.74,0.55 5.537,1.646 1.795,1.098 2.693,2.993 2.693,5.686 0,2.495 -0.95,5.238 -2.844,8.23 -1.896,2.993 -4.589,5.786 -8.08,8.38 -1.497,1.098 -3.392,2.146 -5.685,3.141 -2.297,1 -4.591,1.821 -6.884,2.469 -2.296,0.65 -4.189,0.974 -5.687,0.974 -0.5,1.197 -0.972,2.794 -1.421,4.788 -0.448,1.997 -0.673,4.04 -0.673,6.134 0,2.495 0.497,4.74 1.497,6.734 0.996,1.997 2.843,2.993 5.536,2.993 3.292,0 6.359,-0.947 9.203,-2.844 2.842,-1.892 5.386,-4.287 7.63,-7.183 2.246,-2.89 4.164,-5.834 5.762,-8.828 1.594,-2.992 2.844,-5.536 3.741,-7.63 1.197,0 1.795,0.448 1.795,1.348 -1.298,2.792 -2.768,5.834 -4.414,9.125 -1.645,3.293 -3.59,6.361 -5.836,9.204 -2.245,2.843 -4.937,5.188 -8.08,7.033 -3.142,1.846 -6.809,2.767 -10.998,2.767 z"
       fill="#2d2d2f"
       id="path366" />
    <path
       d="m 847.855,401.729 c -3.094,0 -5.238,-0.8 -6.434,-2.394 -1.197,-1.594 -1.797,-3.64 -1.797,-6.135 0,-2.593 0.449,-5.536 1.348,-8.828 0.897,-3.292 2.095,-6.981 3.592,-11.073 -1.1,0 -1.647,-0.499 -1.647,-1.496 0.798,-1.995 1.668,-4.264 2.619,-6.81 0.947,-2.542 1.421,-5.409 1.421,-8.604 0,-1.594 -0.201,-2.94 -0.598,-4.04 -0.4,-1.096 -0.999,-1.742 -1.795,-1.945 2.093,-0.397 3.74,-0.696 4.937,-0.897 1.196,-0.198 1.994,-0.3 2.394,-0.3 0.6,-0.098 1.145,-0.172 1.646,-0.224 0.498,-0.05 0.947,-0.074 1.347,-0.074 0.996,0 1.668,0.4 2.02,1.198 0.348,0.798 0.472,2.542 0.375,5.236 -0.102,2.494 -0.6,5.513 -1.498,9.053 -0.897,3.543 -1.846,6.609 -2.842,9.201 -1.298,3.394 -2.495,6.836 -3.591,10.326 -1.1,3.493 -1.647,6.385 -1.647,8.678 0,1.998 0.547,3.292 1.647,3.891 0.797,0.3 1.496,0.449 2.095,0.449 2.293,0 4.537,-1.097 6.733,-3.292 2.192,-2.193 4.264,-4.864 6.209,-8.005 1.946,-3.143 3.566,-6.159 4.864,-9.053 -0.6,-2.294 -0.898,-5.036 -0.898,-8.231 0,-3.389 0.397,-6.831 1.197,-10.324 0.796,-3.491 2.044,-6.408 3.741,-8.753 1.695,-2.343 3.891,-3.516 6.583,-3.516 1.895,0 2.843,0.848 2.843,2.542 0,0.4 -0.474,2.095 -1.422,5.088 -0.948,2.992 -2.169,6.535 -3.665,10.624 -1.496,4.092 -3.093,8.032 -4.788,11.822 -0.4,0.8 -0.748,1.597 -1.048,2.393 0.397,1.697 1.147,3.068 2.245,4.116 1.096,1.048 2.443,1.571 4.04,1.571 1.995,0 3.864,-0.922 5.611,-2.768 1.745,-1.846 3.567,-4.962 5.461,-9.352 1.198,0 1.796,0.448 1.796,1.346 -1.597,3.991 -3.516,7.182 -5.761,9.576 -2.244,2.395 -4.764,3.591 -7.556,3.591 -3.392,0 -5.836,-1.743 -7.332,-5.236 -1.697,3.493 -3.692,6.808 -5.985,9.951 -2.295,3.142 -4.814,5.71 -7.556,7.705 -2.746,1.996 -5.712,2.993 -8.904,2.993 z"
       fill="#2d2d2f"
       id="path368" />
    <path
       d="m 921.622,401.131 c -2.297,0 -4.316,-0.649 -6.061,-1.946 -1.746,-1.295 -2.619,-3.939 -2.619,-7.931 0,-1.695 0.124,-3.291 0.376,-4.788 0.247,-1.496 0.572,-3.091 0.972,-4.788 -0.899,1.496 -2.147,3.344 -3.741,5.536 -1.598,2.197 -3.367,4.34 -5.312,6.435 -1.944,2.096 -3.942,3.841 -5.986,5.237 -2.046,1.399 -3.965,2.096 -5.761,2.096 -2.595,0 -4.689,-1.172 -6.284,-3.517 -1.597,-2.343 -2.394,-5.411 -2.394,-9.203 0,-4.089 0.946,-8.479 2.843,-13.167 1.894,-4.688 4.488,-9.177 7.78,-13.468 3.294,-4.288 7.083,-7.781 11.374,-10.474 4.288,-2.694 8.776,-4.039 13.466,-4.039 2.294,0 4.49,0.373 6.584,1.121 2.094,0.748 3.939,1.971 5.536,3.667 0.698,0.697 1.048,1.495 1.048,2.393 0,0.599 -0.25,1.099 -0.748,1.496 -0.5,0.4 -1.148,0.502 -1.945,0.3 -1.1,-3.492 -3.443,-5.237 -7.033,-5.237 -1.698,0 -3.643,0.549 -5.836,1.645 -2.694,1.399 -5.563,3.618 -8.603,6.659 -3.046,3.045 -5.888,6.485 -8.531,10.325 -2.644,3.842 -4.813,7.706 -6.509,11.598 -1.697,3.889 -2.543,7.43 -2.543,10.622 0,3.294 1.246,4.939 3.74,4.939 2.194,0 4.464,-1.048 6.81,-3.143 2.342,-2.094 4.586,-4.713 6.733,-7.854 2.143,-3.143 4.115,-6.26 5.909,-9.354 1.798,-3.09 3.192,-5.585 4.191,-7.481 1.496,-2.693 2.892,-4.937 4.189,-6.733 1.296,-1.796 3.143,-2.695 5.538,-2.695 1.096,0 2.193,0.151 3.29,0.449 1.098,0.3 2.245,0.351 3.443,0.151 -2.994,2.992 -5.612,6.533 -7.856,10.623 -2.245,4.093 -3.965,8.106 -5.163,12.046 -1.197,3.942 -1.794,7.258 -1.794,9.951 0,2.992 0.994,4.489 2.992,4.489 1.593,0 3.314,-0.898 5.162,-2.694 1.844,-1.795 3.64,-4.064 5.387,-6.807 1.744,-2.743 3.367,-5.537 4.863,-8.38 1.497,-2.844 2.694,-5.312 3.592,-7.408 0.497,0 0.921,0.052 1.272,0.151 0.348,0.1 0.522,0.5 0.522,1.197 -0.1,0.399 -0.276,0.821 -0.522,1.272 -0.251,0.448 -0.624,1.221 -1.123,2.319 -0.8,1.597 -1.896,3.74 -3.292,6.433 -1.397,2.695 -3.044,5.413 -4.937,8.156 -1.898,2.745 -3.943,5.064 -6.136,6.957 -2.195,1.898 -4.49,2.844 -6.883,2.844 z"
       fill="#2d2d2f"
       id="path370" />
    <path
       d="m 549.335,463.231 h 2.362 v 19.107 c -2.263,2.164 -4.955,3.811 -8.078,4.941 -3.125,1.132 -6.456,1.698 -9.996,1.698 -5.066,0 -9.64,-1.131 -13.722,-3.394 -4.082,-2.262 -7.291,-5.385 -9.626,-9.369 -2.336,-3.984 -3.504,-8.433 -3.504,-13.352 0,-4.916 1.168,-9.368 3.504,-13.352 2.335,-3.983 5.544,-7.105 9.626,-9.369 4.082,-2.262 8.656,-3.394 13.722,-3.394 3.688,0 7.082,0.567 10.18,1.698 3.098,1.132 5.754,2.829 7.967,5.09 l -1.475,1.696 c -4.28,-4.13 -9.812,-6.196 -16.598,-6.196 -4.624,0 -8.792,1.044 -12.504,3.135 -3.715,2.091 -6.627,4.956 -8.742,8.595 -2.114,3.64 -3.172,7.67 -3.172,12.097 0,4.427 1.058,8.46 3.172,12.099 2.115,3.64 5.027,6.504 8.742,8.594 3.712,2.091 7.88,3.134 12.504,3.134 6.441,0 11.656,-1.794 15.638,-5.384 z"
       fill="#2d2d2f"
       id="path372" />
    <path
       d="m 587.178,469.059 c 5.753,0 10.18,-1.291 13.278,-3.873 3.099,-2.582 4.647,-6.258 4.647,-11.028 0,-4.722 -1.548,-8.374 -4.647,-10.955 -3.098,-2.581 -7.525,-3.873 -13.278,-3.873 h -15.566 v 29.729 z m 18.22,19.623 -12.762,-17.779 c -1.673,0.295 -3.541,0.443 -5.606,0.443 h -15.418 v 17.336 h -2.508 v -51.639 h 17.926 c 6.442,0 11.47,1.512 15.086,4.537 3.615,3.024 5.422,7.218 5.422,12.578 0,4.13 -1.071,7.586 -3.21,10.364 -2.14,2.778 -5.2,4.709 -9.184,5.79 l 13.204,18.37 z"
       fill="#2d2d2f"
       id="path374" />
    <path
       d="m 655.781,483.591 c 3.69,-2.066 6.59,-4.916 8.706,-8.558 2.113,-3.638 3.17,-7.696 3.17,-12.172 0,-4.473 -1.057,-8.53 -3.17,-12.17 -2.116,-3.64 -5.016,-6.491 -8.706,-8.558 -3.688,-2.065 -7.796,-3.098 -12.318,-3.098 -4.526,0 -8.62,1.033 -12.283,3.098 -3.665,2.067 -6.553,4.918 -8.668,8.558 -2.115,3.64 -3.172,7.697 -3.172,12.17 0,4.476 1.057,8.534 3.172,12.172 2.115,3.642 5.003,6.492 8.668,8.558 3.663,2.066 7.757,3.098 12.283,3.098 4.522,0 8.63,-1.032 12.318,-3.098 z m -25.929,1.992 c -4.059,-2.262 -7.243,-5.384 -9.553,-9.368 -2.312,-3.984 -3.467,-8.435 -3.467,-13.354 0,-4.916 1.155,-9.368 3.467,-13.352 2.31,-3.982 5.494,-7.105 9.553,-9.368 4.057,-2.261 8.595,-3.393 13.611,-3.393 5.016,0 9.564,1.132 13.646,3.393 4.082,2.263 7.278,5.386 9.591,9.368 2.311,3.984 3.467,8.436 3.467,13.352 0,4.919 -1.156,9.37 -3.467,13.354 -2.313,3.984 -5.509,7.106 -9.591,9.368 -4.082,2.262 -8.63,3.393 -13.646,3.393 -5.016,0 -9.554,-1.131 -13.611,-3.393 z"
       fill="#2d2d2f"
       id="path376" />
    <path
       d="m 688.719,483.37 c -3.567,-3.736 -5.347,-9.222 -5.347,-16.45 v -29.877 h 2.507 v 29.803 c 0,6.59 1.524,11.544 4.573,14.864 3.049,3.32 7.451,4.98 13.205,4.98 5.704,0 10.094,-1.66 13.168,-4.98 3.074,-3.32 4.61,-8.274 4.61,-14.864 v -29.803 h 2.434 v 29.877 c 0,7.228 -1.769,12.714 -5.312,16.45 -3.54,3.738 -8.508,5.606 -14.9,5.606 -6.394,0 -11.373,-1.868 -14.938,-5.606 z"
       fill="#2d2d2f"
       id="path378" />
    <path
       d="m 773.665,465.186 c 3.098,-2.582 4.646,-6.258 4.646,-11.028 0,-4.721 -1.548,-8.373 -4.646,-10.956 -3.099,-2.58 -7.524,-3.872 -13.279,-3.872 h -15.565 v 29.73 h 15.565 c 5.755,0 10.18,-1.291 13.279,-3.874 z m 1.66,-23.606 c 3.614,3.025 5.421,7.218 5.421,12.578 0,5.41 -1.807,9.627 -5.421,12.651 -3.615,3.024 -8.644,4.537 -15.087,4.537 h -15.417 v 17.335 h -2.509 v -51.639 h 17.926 c 6.443,0 11.472,1.514 15.087,4.538 z"
       fill="#2d2d2f"
       id="path380" />
  </g>
</svg>
